<svg width="154" height="28" viewBox="0 0 154 28" fill="#221714" xmlns="http://www.w3.org/2000/svg">
<path d="M23.1621 0C28.067 0.000167562 32.0701 4.19616 32.0703 9.33301V18.667H28.5068V9.33301C28.5067 6.22214 26.1376 3.55682 23.1621 3.55664C20.1865 3.55664 17.8166 6.22203 17.8164 9.33301V18.667C17.8162 23.8039 13.8132 28 8.9082 28C4.00328 27.9999 0.000170322 23.8039 0 18.667V9.33301H3.56348V18.667C3.56364 21.7779 5.93265 24.4432 8.9082 24.4434C11.8838 24.4434 14.2537 21.778 14.2539 18.667V9.33301C14.2541 4.19606 18.2571 0 23.1621 0ZM147.097 9.33301C148.969 9.33312 150.683 10.0421 151.968 11.4062C153.306 12.714 154.001 14.4584 154.001 16.3682C154.001 16.8132 153.956 17.2458 153.878 17.6689H143.006C143.551 19.4408 145.178 20.7305 147.094 20.7305C147.571 20.7304 148.027 20.6518 148.454 20.5107V23.208C148.014 23.2989 147.561 23.3457 147.097 23.3457C143.298 23.3456 140.247 20.2411 140.247 16.3682C140.247 12.495 143.298 9.33313 147.097 9.33301ZM68.458 9.33691C72.1345 9.33696 75.1387 12.4825 75.1387 16.3369V23.3369H72.4678V16.3369C72.4678 14.0036 70.6921 12.002 68.458 12.002C66.2238 12.002 64.4482 14.0036 64.4482 16.3369V23.3369H61.7773V16.3369C61.7773 12.4857 64.7815 9.33691 68.458 9.33691ZM84.04 23.3369H81.3662V9.32422H84.04V23.3369ZM96.6943 9.33301H100.707V12.0049H96.6943V23.3369H94.0205V12.0049H90.0107V9.33301H94.0205V4.6543H96.6943V9.33301ZM129.12 9.33691C132.796 9.33718 135.8 12.4827 135.8 16.3369V23.3369H133.129V16.3369H133.139C133.139 14.0037 131.357 12.0022 129.12 12.002C126.883 12.002 125.101 14.0036 125.101 16.3369H125.11V23.3369H122.439V16.3369C122.439 12.4857 125.444 9.33691 129.12 9.33691ZM45.4316 16.333C45.4316 18.6662 47.2064 20.6678 49.4404 20.668C51.6746 20.668 53.4502 18.6663 53.4502 16.333V9.33301H56.1211V16.333C56.1211 20.1843 53.1169 23.333 49.4404 23.333C45.7641 23.3328 42.7607 20.1873 42.7607 16.333V9.33301H45.4316V16.333ZM111.152 9.33301C115.027 9.33318 118.166 12.4663 118.166 16.333C118.166 20.1998 115.027 23.3328 111.152 23.333C107.278 23.333 104.139 20.1999 104.139 16.333C104.139 12.4662 107.278 9.33301 111.152 9.33301ZM111.152 12.002C108.755 12.002 106.81 13.944 106.81 16.3369C106.81 18.7296 108.755 20.6709 111.152 20.6709C113.55 20.6707 115.495 18.7295 115.495 16.3369C115.495 13.9441 113.55 12.0021 111.152 12.002ZM147.094 11.9521C145.198 11.9521 143.589 13.2464 143.026 15H151.221C151.015 14.3444 150.66 13.7404 150.167 13.2383C149.344 12.401 148.247 11.9523 147.094 11.9521ZM84.04 7.32324H81.3662V4.6543H84.04V7.32324Z"/>
</svg>
