<svg width="150" height="28" viewBox="0 0 150 28" fill="none" xmlns="http://www.w3.org/2000/svg">
<path d="M22.7764 0C27.5974 0 31.5381 4.12122 31.5381 9.16602V18.3311H28.0332V9.16602C28.0332 6.1108 25.703 3.49219 22.7764 3.49219C19.8498 3.49223 17.5195 6.11083 17.5195 9.16602V18.3311C17.5195 23.3759 13.582 27.4971 8.75781 27.4971C3.93387 27.4968 0 23.3786 0 18.334V9.16895H3.50488V18.3311C3.50488 21.3863 5.83509 24.0039 8.76172 24.0039C11.6882 24.0037 14.0186 21.3861 14.0186 18.3311V9.16602C14.0155 4.12124 17.9553 4.08551e-05 22.7764 0ZM143.21 9.16602C145.052 9.16602 146.737 9.86144 148.001 11.2012C149.317 12.4855 150 14.1986 150 16.0742C150 16.5113 149.957 16.9361 149.88 17.3516H139.187C139.723 19.0916 141.323 20.3573 143.207 20.3574C143.677 20.3574 144.125 20.2811 144.545 20.1426V22.791C144.112 22.8803 143.667 22.9268 143.21 22.9268C139.474 22.9266 136.474 19.8775 136.474 16.0742C136.474 12.2707 139.474 9.16622 143.21 9.16602ZM67.0225 9.16895C70.6381 9.16917 73.5928 12.258 73.5928 16.043V22.917H70.9658V16.043C70.9658 13.7517 69.2196 11.7864 67.0225 11.7861C64.8252 11.7861 63.0791 13.7516 63.0791 16.043V22.917H60.4521V16.043C60.4521 12.2609 63.4067 9.16895 67.0225 9.16895ZM81.4756 22.917H78.8457V9.15625H81.4756V22.917ZM93.3125 9.16602H97.2559V11.7861H93.3125V22.917H90.6826V11.7861H86.7363V9.16602H90.6826V4.57031H93.3125V9.16602ZM124.838 9.16895C128.454 9.16902 131.408 12.2579 131.408 16.043V22.917H128.781V16.043H128.79C128.79 13.7516 127.038 11.7862 124.838 11.7861C122.638 11.7861 120.885 13.7516 120.885 16.043H120.895V22.917H118.268V16.043C118.268 12.2609 121.222 9.16895 124.838 9.16895ZM44.6787 16.04C44.6788 18.3314 46.4248 20.2959 48.6221 20.2959C50.8191 20.2957 52.5653 18.3312 52.5654 16.04V9.16602H55.1924V16.04C55.1923 19.8219 52.2376 22.9138 48.6221 22.9141C45.0063 22.9141 42.0518 19.8251 42.0518 16.04V9.16602H44.6787V16.04ZM106.44 9.16602C110.251 9.16602 113.338 12.2426 113.338 16.04C113.338 19.8374 110.251 22.9141 106.44 22.9141C102.63 22.914 99.5431 19.8374 99.543 16.04C99.543 12.2426 102.63 9.16603 106.44 9.16602ZM106.44 11.7861C104.082 11.7861 102.17 13.6931 102.17 16.043C102.17 18.3929 104.082 20.2988 106.44 20.2988C108.798 20.2988 110.711 18.3929 110.711 16.043C110.711 13.693 108.798 11.7861 106.44 11.7861ZM143.207 11.7373C141.343 11.7374 139.76 13.0083 139.206 14.7305H147.267C147.064 14.0864 146.715 13.4932 146.229 13C145.42 12.1778 144.341 11.7373 143.207 11.7373ZM81.4756 7.19141H78.8457V4.57031H81.4756V7.19141Z" fill="#231815"/>
</svg>
