<svg xmlns="http://www.w3.org/2000/svg" width="140.85" height="20.1" viewBox="0 0 140.85 20.1"><path d="M13,6.1a1.38,1.38,0,0,0-1.9,0,1.28,1.28,0,0,0-.38,1v6.39a4.86,4.86,0,0,1-.54,2.41,3.41,3.41,0,0,1-1.49,1.4,4.39,4.39,0,0,1-1.43.41l-.2,0-.35,0-.35,0-.2,0a4.54,4.54,0,0,1-1.43-.41,3.38,3.38,0,0,1-1.48-1.4,4.75,4.75,0,0,1-.55-2.41V7.05a1.24,1.24,0,0,0-.38-1,1.27,1.27,0,0,0-.94-.38A1.3,1.3,0,0,0,0,7.05v6.39a7.39,7.39,0,0,0,.82,3.64,5.49,5.49,0,0,0,2.23,2.25,6.69,6.69,0,0,0,3.22.77l.39,0,.4,0a6.68,6.68,0,0,0,3.21-.77,5.49,5.49,0,0,0,2.23-2.25,7.39,7.39,0,0,0,.82-3.64V7.05A1.27,1.27,0,0,0,13,6.1Z" fill="#040000"/><path d="M36.47,8.74a5.49,5.49,0,0,0-2.23-2.25A6.69,6.69,0,0,0,31,5.72l-.39,0-.4,0A6.68,6.68,0,0,0,27,6.49a5.49,5.49,0,0,0-2.23,2.25A7.37,7.37,0,0,0,24,12.38v6.39a1.33,1.33,0,1,0,2.65,0V12.38A4.8,4.8,0,0,1,27.16,10a3.41,3.41,0,0,1,1.49-1.4,4.29,4.29,0,0,1,1.43-.41l.2,0,.35,0,.35,0,.2,0a4.29,4.29,0,0,1,1.43.41A3.38,3.38,0,0,1,34.09,10a4.7,4.7,0,0,1,.55,2.41v6.39a1.26,1.26,0,0,0,.38.95,1.37,1.37,0,0,0,1.89,0,1.3,1.3,0,0,0,.38-.95V12.38A7.37,7.37,0,0,0,36.47,8.74Z" fill="#040000"/><path d="M50.65,3.43a1.65,1.65,0,0,1-1.21-.51,1.63,1.63,0,0,1-.51-1.2A1.63,1.63,0,0,1,49.44.51a1.69,1.69,0,0,1,2.42,0,1.63,1.63,0,0,1,.51,1.21,1.63,1.63,0,0,1-.51,1.2A1.65,1.65,0,0,1,50.65,3.43Zm0,16.54a1.3,1.3,0,0,1-1.33-1.33V7.07a1.27,1.27,0,0,1,.38-1,1.32,1.32,0,0,1,.95-.36A1.25,1.25,0,0,1,52,7.07V18.64a1.33,1.33,0,0,1-.37.95A1.27,1.27,0,0,1,50.65,20Z" fill="#040000"/><path d="M70.26,17.73a1,1,0,0,0-.79-.36h-.89a1.77,1.77,0,0,1-1.4-.7,2.69,2.69,0,0,1-.57-1.75V8.5h2.21a1.23,1.23,0,0,0,.88-.31A1,1,0,0,0,70,7.41a1.06,1.06,0,0,0-.34-.83,1.23,1.23,0,0,0-.88-.31H66.61V2.52a1.26,1.26,0,0,0-1.3-1.3A1.25,1.25,0,0,0,64,2.52v12.4a5.45,5.45,0,0,0,.6,2.58,4.58,4.58,0,0,0,1.63,1.8,4.23,4.23,0,0,0,2.34.67h.47a1.64,1.64,0,0,0,1.11-.37,1.18,1.18,0,0,0,.43-.93A1.35,1.35,0,0,0,70.26,17.73Z"/><path d="M87.41,20.07a7.38,7.38,0,0,1-3.72-.92,6.76,6.76,0,0,1-2.54-2.55,7.47,7.47,0,0,1-.92-3.73,7.56,7.56,0,0,1,.92-3.76,6.76,6.76,0,0,1,2.54-2.55,7.92,7.92,0,0,1,7.41,0,6.73,6.73,0,0,1,2.53,2.55,7.46,7.46,0,0,1,.93,3.76,7.57,7.57,0,0,1-.91,3.73,6.66,6.66,0,0,1-2.53,2.55A7.37,7.37,0,0,1,87.41,20.07Zm0-2.34a4.63,4.63,0,0,0,2.39-.62,4.4,4.4,0,0,0,1.62-1.72A5.27,5.27,0,0,0,92,12.87a5.38,5.38,0,0,0-.59-2.54A4.33,4.33,0,0,0,89.8,8.61a4.87,4.87,0,0,0-4.79,0,4.36,4.36,0,0,0-1.63,1.72,5.27,5.27,0,0,0-.6,2.54,5.16,5.16,0,0,0,.6,2.52A4.42,4.42,0,0,0,85,17.11,4.64,4.64,0,0,0,87.41,17.73Z" fill="#040000"/><path d="M116.7,8.74a5.49,5.49,0,0,0-2.23-2.25,6.68,6.68,0,0,0-3.21-.77l-.4,0-.4,0a6.68,6.68,0,0,0-3.21.77A5.49,5.49,0,0,0,105,8.74a7.37,7.37,0,0,0-.82,3.64v6.39a1.29,1.29,0,0,0,.37.95,1.31,1.31,0,0,0,1,.38,1.28,1.28,0,0,0,1-.38,1.3,1.3,0,0,0,.38-.95V12.38A4.7,4.7,0,0,1,107.4,10a3.33,3.33,0,0,1,1.48-1.4,4.29,4.29,0,0,1,1.43-.41l.2,0,.35,0,.35,0,.2,0a4.29,4.29,0,0,1,1.43.41,3.33,3.33,0,0,1,1.48,1.4,4.7,4.7,0,0,1,.55,2.41v6.39a1.3,1.3,0,0,0,.38.95,1.37,1.37,0,0,0,1.89,0,1.26,1.26,0,0,0,.38-.95V12.38A7.37,7.37,0,0,0,116.7,8.74Z" fill="#040000"/><path d="M130.27,13.78h8.88a8.09,8.09,0,0,0,1-.08.91.91,0,0,0,.37-.25,1,1,0,0,0,.34-.81A8.21,8.21,0,0,0,140.08,9a5.84,5.84,0,0,0-2.22-2.47,6.65,6.65,0,0,0-.75-.39,7,7,0,0,0-2.74-.51h-.06a6.92,6.92,0,0,0-2.73.51,7.42,7.42,0,0,0-.85.41,6.68,6.68,0,0,0-2.48,2.55,7.66,7.66,0,0,0-.9,3.76,7.29,7.29,0,0,0,1,3.73,8.11,8.11,0,0,0,.57.83,6.91,6.91,0,0,0,2.06,1.72,6.93,6.93,0,0,0,6.83,0,7,7,0,0,0,2.05-1.72,9.66,9.66,0,0,0,.57-.83,1,1,0,0,0,0-1,1.18,1.18,0,0,0-1.12-.45c-.63,0-1,.5-1.39.93a4.38,4.38,0,0,1-5.7,1.07,4.85,4.85,0,0,1-1.8-1.77,5.11,5.11,0,0,1-.45-1.15A.38.38,0,0,1,130.27,13.78Zm-.35-2.57a4.88,4.88,0,0,1,.32-.9,4.12,4.12,0,0,1,1.6-1.78,4.36,4.36,0,0,1,1.83-.61,4.92,4.92,0,0,1,.67,0,4.83,4.83,0,0,1,.67,0,3.52,3.52,0,0,1,1.57.56A3.9,3.9,0,0,1,138,10.1a5.93,5.93,0,0,1,.36,1.11.4.4,0,0,1-.4.49H130.3A.38.38,0,0,1,129.92,11.21Z" fill="#040000"/></svg>
