<?xml version="1.0"?>
<svg viewBox="0 0 1280 720" preserveAspectRatio="xMidYMid slice" xmlns="http://www.w3.org/2000/svg">
	<rect width="100%" height="100%" fill="url(#unitone-abstract-background-mesh-5__background)"/>
	<path d="M1280 505.655C1265.8 529.46 1253.53 551.761 1243.95 571.717C1224.48 612.29 1205.42 664.358 1187.78 720H513.023C583.3 622.22 657.11 528.715 719.153 469.14L720.812 467.553C791.344 400.3 902.42 324.108 1012.85 256.062C1112.47 194.68 1211.58 139.912 1280 104.289V505.655Z" fill="url(#unitone-abstract-background-mesh-5__1)"/>
	<path d="M1280 505.655L1280.43 505.911L1280.5 505.793V505.655H1280ZM1243.95 571.717L1243.5 571.5L1243.5 571.5L1243.95 571.717ZM1187.78 720V720.5H1188.14L1188.25 720.151L1187.78 720ZM513.023 720L512.617 719.708L512.048 720.5H513.023V720ZM719.153 469.14L718.808 468.778L718.807 468.779L719.153 469.14ZM720.812 467.553L720.467 467.191L720.467 467.191L720.812 467.553ZM1012.85 256.062L1012.59 255.636L1012.59 255.636L1012.85 256.062ZM1280 104.289H1280.5V103.465L1279.77 103.846L1280 104.289ZM1280 505.655L1279.57 505.399C1265.37 529.212 1253.09 551.526 1243.5 571.5L1243.95 571.717L1244.4 571.933C1253.97 551.995 1266.23 529.708 1280.43 505.911L1280 505.655ZM1243.95 571.717L1243.5 571.5C1224.02 612.104 1204.95 664.197 1187.3 719.849L1187.78 720L1188.25 720.151C1205.89 664.518 1224.95 612.476 1244.4 571.933L1243.95 571.717ZM1187.78 720V719.5H513.023V720V720.5H1187.78V720ZM513.023 720L513.429 720.292C583.703 622.517 657.491 529.042 719.5 469.5L719.153 469.14L718.807 468.779C656.729 528.388 582.897 621.924 512.617 719.708L513.023 720ZM719.153 469.14L719.499 469.501L721.158 467.914L720.812 467.553L720.467 467.191L718.808 468.778L719.153 469.14ZM720.812 467.553L721.158 467.915C791.649 400.7 902.687 324.53 1013.11 256.487L1012.85 256.062L1012.59 255.636C902.153 323.685 791.039 399.9 720.467 467.191L720.812 467.553ZM1012.85 256.062L1013.11 256.487C1112.72 195.113 1211.82 140.351 1280.23 104.733L1280 104.289L1279.77 103.846C1211.34 139.473 1112.22 194.247 1012.59 255.636L1012.85 256.062ZM1280 104.289H1279.5V505.655H1280H1280.5V104.289H1280Z" fill="url(#unitone-abstract-background-mesh-5__2)"/>
	<path d="M1280 10.3867C1221.32 92.3237 1165.66 176.804 1135.95 238.717C1074 367.814 1016.19 613.279 995.01 720H185.416L185.571 719.742L189.557 713.14C231.616 643.645 300.792 535.074 376.729 426.851C455.109 315.144 540.716 203.776 611.153 136.14L612.812 134.553C657.6 91.8478 718.736 45.5396 785.673 0H1280V10.3867Z" fill="url(#unitone-abstract-background-mesh-5__3)"/>
	<path d="M1280 10.3867L1280.41 10.6779L1280.5 10.5473V10.3867H1280ZM1135.95 238.717L1135.5 238.5L1135.5 238.5L1135.95 238.717ZM995.01 720V720.5H995.42L995.5 720.097L995.01 720ZM185.416 720L184.988 719.742L184.531 720.5H185.416V720ZM185.571 719.742L185.143 719.484L185.143 719.484L185.571 719.742ZM189.557 713.14L189.129 712.881L189.129 712.881L189.557 713.14ZM376.729 426.851L376.319 426.563L376.319 426.563L376.729 426.851ZM611.153 136.14L610.808 135.778L610.807 135.779L611.153 136.14ZM612.812 134.553L612.467 134.191L612.467 134.191L612.812 134.553ZM785.673 0V-0.5H785.519L785.392 -0.413399L785.673 0ZM1280 0H1280.5V-0.5H1280V0ZM1280 10.3867L1279.59 10.0956C1220.91 92.0342 1165.23 176.545 1135.5 238.5L1135.95 238.717L1136.4 238.933C1166.09 177.063 1221.72 92.6131 1280.41 10.6779L1280 10.3867ZM1135.95 238.717L1135.5 238.5C1073.52 367.661 1015.7 613.184 994.519 719.903L995.01 720L995.5 720.097C1016.68 613.373 1074.48 367.966 1136.4 238.933L1135.95 238.717ZM995.01 720V719.5H185.416V720V720.5H995.01V720ZM185.416 720L185.844 720.258L186 720L185.571 719.742L185.143 719.484L184.988 719.742L185.416 720ZM185.571 719.742L185.999 720.001L189.985 713.398L189.557 713.14L189.129 712.881L185.143 719.484L185.571 719.742ZM189.557 713.14L189.984 713.399C232.039 643.912 301.208 535.351 377.138 427.138L376.729 426.851L376.319 426.563C300.375 534.797 231.193 643.377 189.129 712.881L189.557 713.14ZM376.729 426.851L377.138 427.138C455.517 315.434 541.1 204.1 611.5 136.5L611.153 136.14L610.807 135.779C540.332 203.451 454.702 314.854 376.319 426.563L376.729 426.851ZM611.153 136.14L611.499 136.501L613.158 134.914L612.812 134.553L612.467 134.191L610.808 135.778L611.153 136.14ZM612.812 134.553L613.158 134.915C657.916 92.2372 719.026 45.9468 785.954 0.413399L785.673 0L785.392 -0.413399C718.445 45.1325 657.283 91.4584 612.467 134.191L612.812 134.553ZM785.673 0V0.5H1280V0V-0.5H785.673V0ZM1280 0H1279.5V10.3867H1280H1280.5V0H1280Z" fill="url(#unitone-abstract-background-mesh-5__4)"/>
	<path d="M843.198 0C819.716 30.8153 794.948 64.0467 770.53 97.9053C709.115 183.067 649.93 272.161 618.951 336.717C571.962 434.637 527.357 599.508 499.309 720H0V338.113C32.9348 297.972 64.8556 262.272 94.1533 234.14L95.8125 232.553C166.344 165.3 277.42 89.1077 387.851 21.0615C399.399 13.9453 410.942 6.91898 422.431 0H843.198Z" fill="url(#unitone-abstract-background-mesh-5__5)"/>
	<path d="M843.198 0L843.596 0.30305L844.208 -0.5H843.198V0ZM770.53 97.9053L770.125 97.6128L770.125 97.6128L770.53 97.9053ZM618.951 336.717L618.5 336.5L618.5 336.5L618.951 336.717ZM499.309 720V720.5H499.706L499.796 720.113L499.309 720ZM0 720H-0.5V720.5H0V720ZM0 338.113L-0.386546 337.796L-0.5 337.934V338.113H0ZM94.1533 234.14L93.8077 233.778L93.807 233.779L94.1533 234.14ZM95.8125 232.553L95.4675 232.191L95.4669 232.191L95.8125 232.553ZM387.851 21.0615L387.588 20.6358L387.588 20.6358L387.851 21.0615ZM422.431 0V-0.5H422.292L422.173 -0.428319L422.431 0ZM843.198 0L842.801 -0.30305C819.317 30.5152 794.546 63.7501 770.125 97.6128L770.53 97.9053L770.936 98.1977C795.351 64.3432 820.116 31.1154 843.596 0.30305L843.198 0ZM770.53 97.9053L770.125 97.6128C708.708 182.775 649.5 271.901 618.5 336.5L618.951 336.717L619.402 336.933C650.36 272.421 709.521 183.358 770.936 98.1977L770.53 97.9053ZM618.951 336.717L618.5 336.5C571.484 434.476 526.869 599.396 498.822 719.887L499.309 720L499.796 720.113C527.844 599.619 572.439 434.798 619.402 336.933L618.951 336.717ZM499.309 720V719.5H0V720V720.5H499.309V720ZM0 720H0.5V338.113H0H-0.5V720H0ZM0 338.113L0.386546 338.43C33.3145 298.297 65.2214 262.614 94.4996 234.5L94.1533 234.14L93.807 233.779C64.4898 261.93 32.5552 297.646 -0.386546 337.796L0 338.113ZM94.1533 234.14L94.4989 234.501L96.1581 232.914L95.8125 232.553L95.4669 232.191L93.8077 233.778L94.1533 234.14ZM95.8125 232.553L96.1575 232.915C166.649 165.7 277.687 89.5304 388.113 21.4872L387.851 21.0615L387.588 20.6358C277.153 88.685 166.039 164.9 95.4675 232.191L95.8125 232.553ZM387.851 21.0615L388.113 21.4872C399.66 14.3719 411.202 7.34648 422.689 0.428319L422.431 0L422.173 -0.428319C410.683 6.49148 399.139 13.5186 387.588 20.6358L387.851 21.0615ZM422.431 0V0.5H843.198V0V-0.5H422.431V0Z" fill="url(#unitone-abstract-background-mesh-5__6)"/>
	<path d="M711.732 0C655.969 83.7961 603.571 169.353 574.43 233.338L572.956 236.599C516.237 363.165 462.994 594.174 438.146 720H0V180.556C16.6163 160.729 32.7415 142.655 48.1416 126.82C87.3287 86.5264 139.366 43.1789 196.989 0H711.732Z" fill="url(#unitone-abstract-background-mesh-5__7)"/>
	<path d="M711.732 0L712.149 0.277004L712.666 -0.5H711.732V0ZM574.43 233.338L573.975 233.131L573.974 233.132L574.43 233.338ZM572.956 236.599L572.5 236.393L572.5 236.394L572.956 236.599ZM438.146 720V720.5H438.557L438.637 720.097L438.146 720ZM0 720H-0.5V720.5H0V720ZM0 180.556L-0.383214 180.234L-0.5 180.374V180.556H0ZM48.1416 126.82L47.7832 126.472L47.7832 126.472L48.1416 126.82ZM196.989 0V-0.5H196.823L196.689 -0.40013L196.989 0ZM711.732 0L711.316 -0.277004C655.551 83.5219 603.133 169.107 573.975 233.131L574.43 233.338L574.885 233.545C604.008 169.599 656.387 84.0703 712.149 0.277004L711.732 0ZM574.43 233.338L573.974 233.132L572.5 236.393L572.956 236.599L573.412 236.805L574.885 233.544L574.43 233.338ZM572.956 236.599L572.5 236.394C515.755 363.02 462.503 594.081 437.656 719.903L438.146 720L438.637 720.097C463.485 594.267 516.72 363.311 573.412 236.803L572.956 236.599ZM438.146 720V719.5H0V720V720.5H438.146V720ZM0 720H0.5V180.556H0H-0.5V720H0ZM0 180.556L0.383214 180.877C16.9937 161.057 33.1105 142.993 48.5 127.169L48.1416 126.82L47.7832 126.472C32.3725 142.318 16.239 160.401 -0.383214 180.234L0 180.556ZM48.1416 126.82L48.5 127.169C87.6614 86.9015 139.675 43.5717 197.289 0.40013L196.989 0L196.689 -0.40013C139.056 42.7862 86.996 86.1514 47.7832 126.472L48.1416 126.82ZM196.989 0V0.5H711.732V0V-0.5H196.989V0Z" fill="url(#unitone-abstract-background-mesh-5__8)"/>
	<defs>
		<radialGradient id="unitone-abstract-background-mesh-5__background" cx="0" cy="0" r="1" gradientUnits="userSpaceOnUse" gradientTransform="translate(388 251.5) rotate(31.3556) scale(514.079 913.918)">
			<stop stop-color="#F84A85"/>
			<stop offset="1" stop-color="#D82B8F"/>
		</radialGradient>
		<linearGradient id="unitone-abstract-background-mesh-5__1" x1="1198.82" y1="115.513" x2="729.844" y2="573.652" gradientUnits="userSpaceOnUse">
			<stop stop-color="white" stop-opacity="0.1"/>
			<stop offset="1" stop-color="white" stop-opacity="0"/>
		</linearGradient>
		<linearGradient id="unitone-abstract-background-mesh-5__2" x1="1181.86" y1="104.289" x2="757.926" y2="601.777" gradientUnits="userSpaceOnUse">
			<stop stop-color="white" stop-opacity="0.1"/>
			<stop offset="1" stop-color="white" stop-opacity="0"/>
		</linearGradient>
		<linearGradient id="unitone-abstract-background-mesh-5__3" x1="1171.55" y1="13.1247" x2="626.279" y2="621.64" gradientUnits="userSpaceOnUse">
			<stop stop-color="white" stop-opacity="0.1"/>
			<stop offset="1" stop-color="white" stop-opacity="0"/>
		</linearGradient>
		<linearGradient id="unitone-abstract-background-mesh-5__4" x1="1148.89" y1="-4.86664e-05" x2="667.62" y2="645.192" gradientUnits="userSpaceOnUse">
			<stop stop-color="white" stop-opacity="0.1"/>
			<stop offset="1" stop-color="white" stop-opacity="0"/>
		</linearGradient>
		<linearGradient id="unitone-abstract-background-mesh-5__5" x1="753.95" y1="13.1251" x2="207.37" y2="515.112" gradientUnits="userSpaceOnUse">
			<stop stop-color="white" stop-opacity="0.1"/>
			<stop offset="1" stop-color="white" stop-opacity="0"/>
		</linearGradient>
		<linearGradient id="unitone-abstract-background-mesh-5__6" x1="735.301" y1="-6.52804e-05" x2="235.621" y2="551.28" gradientUnits="userSpaceOnUse">
			<stop stop-color="white" stop-opacity="0.1"/>
			<stop offset="1" stop-color="white" stop-opacity="0"/>
		</linearGradient>
		<linearGradient id="unitone-abstract-background-mesh-5__7" x1="636.399" y1="13.1251" x2="105.151" y2="424.96" gradientUnits="userSpaceOnUse">
			<stop stop-color="white" stop-opacity="0.1"/>
			<stop offset="1" stop-color="white" stop-opacity="0"/>
		</linearGradient>
		<linearGradient id="unitone-abstract-background-mesh-5__8" x1="620.658" y1="-6.52804e-05" x2="119.834" y2="466.394" gradientUnits="userSpaceOnUse">
			<stop stop-color="white" stop-opacity="0.1"/>
			<stop offset="1" stop-color="white" stop-opacity="0"/>
		</linearGradient>
	</defs>
</svg>
