<?xml version="1.0"?>
<svg viewBox="0 0 1280 720" preserveAspectRatio="xMidYMid slice" xmlns="http://www.w3.org/2000/svg">
	<rect width="100%" height="100%" fill="url(#unitone-abstract-background-mesh-4__background)"/>
	<path d="M1280 161.659C1218.95 189.265 1156.56 215.042 1096.13 236.5C1005.96 268.517 920.144 290.937 849.722 295.482C779.329 300.026 724.148 286.718 695.487 247.063L694.82 246.133C666.751 206.595 658.555 149.927 663.835 84.1328C665.978 57.4294 670.344 29.2091 676.508 0H1280V161.659Z" fill="url(#unitone-abstract-background-mesh-4__1)"/>
	<path d="M933.364 0C988.567 64.7957 1015.86 160.78 1028.54 264.876C1048.02 424.881 1033.01 604.382 1031.5 720H118.237C149.762 659.352 183.719 582.235 221.365 499.839C265.936 402.288 315.671 297.361 372.636 203.709C421.282 123.733 475.219 51.9502 535.74 0H933.364Z" fill="url(#unitone-abstract-background-mesh-4__2)"/>
	<path d="M933.364 0L933.745 -0.324256L933.595 -0.5H933.364V0ZM1028.54 264.876L1029.03 264.816L1029.03 264.816L1028.54 264.876ZM1031.5 720V720.5H1032L1032 720.007L1031.5 720ZM118.237 720L117.794 719.769L117.414 720.5H118.237V720ZM221.365 499.839L220.91 499.631L220.91 499.631L221.365 499.839ZM372.636 203.709L372.209 203.449L372.209 203.449L372.636 203.709ZM535.74 0V-0.5H535.555L535.415 -0.379397L535.74 0ZM933.364 0L932.984 0.324256C988.09 65.0062 1015.37 160.869 1028.04 264.936L1028.54 264.876L1029.03 264.816C1016.35 160.69 989.045 64.5852 933.745 -0.324256L933.364 0ZM1028.54 264.876L1028.04 264.936C1047.52 424.897 1032.51 604.322 1031 719.993L1031.5 720L1032 720.007C1033.51 604.441 1048.52 424.865 1029.03 264.816L1028.54 264.876ZM1031.5 720V719.5H118.237V720V720.5H1031.5V720ZM118.237 720L118.681 720.231C150.213 659.568 184.178 582.431 221.82 500.047L221.365 499.839L220.91 499.631C183.259 582.038 149.311 659.136 117.794 719.769L118.237 720ZM221.365 499.839L221.82 500.047C266.39 402.497 316.115 297.594 373.063 203.969L372.636 203.709L372.209 203.449C315.227 297.129 265.482 402.079 220.91 499.631L221.365 499.839ZM372.636 203.709L373.063 203.969C421.696 124.014 475.601 52.2811 536.066 0.379397L535.74 0L535.415 -0.379397C474.836 51.6193 420.868 123.451 372.209 203.449L372.636 203.709ZM535.74 0V0.5H933.364V0V-0.5H535.74V0Z" fill="url(#unitone-abstract-background-mesh-4__3)" fill-opacity="0.11"/>
	<path d="M0 59.9727C103.325 70.6661 208.126 110.836 289.649 177.419C402.802 269.835 471.106 413.137 428.376 599.064L427.581 602.495C416.896 648.209 404.193 687.127 389.747 720H0V59.9727Z" fill="url(#unitone-abstract-background-mesh-4__4)"/>
	<path d="M0 59.9727L0.0514719 59.4753L-0.5 59.4182V59.9727H0ZM289.649 177.419L289.966 177.032L289.966 177.032L289.649 177.419ZM428.376 599.064L428.863 599.177L428.863 599.176L428.376 599.064ZM427.581 602.495L428.068 602.609L428.068 602.608L427.581 602.495ZM389.747 720V720.5H390.073L390.205 720.201L389.747 720ZM0 720H-0.5V720.5H0V720ZM0 59.9727L-0.0514719 60.47C103.186 71.1544 207.893 111.291 289.333 177.806L289.649 177.419L289.966 177.032C208.36 110.381 103.464 70.1778 0.0514719 59.4753L0 59.9727ZM289.649 177.419L289.333 177.806C402.351 270.113 470.573 413.226 427.889 598.952L428.376 599.064L428.863 599.176C471.64 413.048 403.252 269.558 289.966 177.032L289.649 177.419ZM428.376 599.064L427.889 598.952L427.094 602.382L427.581 602.495L428.068 602.608L428.863 599.177L428.376 599.064ZM427.581 602.495L427.094 602.381C416.415 648.072 403.721 686.959 389.289 719.799L389.747 720L390.205 720.201C404.666 687.294 417.378 648.346 428.068 602.609L427.581 602.495ZM389.747 720V719.5H0V720V720.5H389.747V720ZM0 720H0.5V59.9727H0H-0.5V720H0Z" fill="url(#unitone-abstract-background-mesh-4__5)" fill-opacity="0.17"/>
	<defs>
		<radialGradient id="unitone-abstract-background-mesh-4__background" cx="0" cy="0" r="1" gradientUnits="userSpaceOnUse" gradientTransform="translate(388 251.5) rotate(31.3556) scale(514.079 913.918)">
			<stop stop-color="#FFAE57"/>
			<stop offset="1" stop-color="#E65C00"/>
		</radialGradient>
		<linearGradient id="unitone-abstract-background-mesh-4__1" x1="1093.41" y1="13.1456" x2="1059.35" y2="340.754" gradientUnits="userSpaceOnUse">
			<stop stop-color="#FDA64F" stop-opacity="0.75"/>
			<stop offset="1" stop-color="#E65C00" stop-opacity="0"/>
		</linearGradient>
		<linearGradient id="unitone-abstract-background-mesh-4__2" x1="773.181" y1="31.3881" x2="651.468" y2="754.191" gradientUnits="userSpaceOnUse">
			<stop stop-color="#FDA64F" stop-opacity="0.33"/>
			<stop offset="1" stop-color="#E65C00" stop-opacity="0"/>
		</linearGradient>
		<linearGradient id="unitone-abstract-background-mesh-4__3" x1="860.146" y1="45.3827" x2="608.476" y2="617.52" gradientUnits="userSpaceOnUse">
			<stop stop-color="white"/>
			<stop offset="1" stop-color="white" stop-opacity="0"/>
		</linearGradient>
		<linearGradient id="unitone-abstract-background-mesh-4__4" x1="214.379" y1="82.9012" x2="18.8721" y2="772.474" gradientUnits="userSpaceOnUse">
			<stop stop-color="#FDA64F" stop-opacity="0.33"/>
			<stop offset="1" stop-color="#E65C00" stop-opacity="0"/>
		</linearGradient>
		<linearGradient id="unitone-abstract-background-mesh-4__5" x1="116.279" y1="131.652" x2="254.198" y2="493.904" gradientUnits="userSpaceOnUse">
			<stop stop-color="white" stop-opacity="0.5"/>
			<stop offset="1" stop-color="white" stop-opacity="0"/>
		</linearGradient>
	</defs>
</svg>
