<?xml version="1.0"?>
<svg viewBox="0 0 1280 720" preserveAspectRatio="xMidYMid slice" xmlns="http://www.w3.org/2000/svg">
	<rect width="100%" height="100%" fill="url(#unitone-abstract-background-mountain-1__background)"/>
	<path d="M1280 720V122L1261.85 179.667C1244.77 237.333 1208.48 352.667 1173.25 365.481C1151.5 373.395 1129.34 342.217 1107.27 311.173C1093.6 291.944 1079.97 272.766 1066.5 262.963C1034.06 239.362 1000.72 270.093 968.135 300.121C965.334 302.703 962.539 305.279 959.75 307.815C924.523 339.852 888.227 365.481 853 371.889C817.773 378.296 781.477 365.481 746.25 339.852C739.491 334.935 732.693 329.546 725.871 324.137C697.135 301.357 667.969 278.236 639.5 288.593C621.886 295 604.006 314.222 586.125 333.444C568.244 352.667 550.364 371.889 532.75 378.296C511.016 386.202 488.876 374.598 466.831 363.043C453.144 355.868 439.494 348.714 426 346.259C406.406 342.695 386.481 349.043 366.594 355.379C350.727 360.434 334.883 365.481 319.25 365.481C290.646 365.481 261.338 348.583 232.469 331.938C225.784 328.084 219.123 324.244 212.5 320.63C200.461 314.061 188.298 308.24 176.095 302.4C152.59 291.152 128.939 279.834 105.75 262.963C70.5225 237.333 34.2275 198.889 17.1475 179.667L0 161.504V720H1280Z" fill="url(#unitone-abstract-background-mountain-1__3rd)"/>
	<path d="M1280 720V220L1259.09 286.421C1239.41 352.843 1197.59 485.685 1157 500.446C1131.94 509.56 1106.4 473.649 1080.98 437.892C1065.23 415.744 1049.53 393.655 1034 382.363C996.623 355.18 958.203 390.575 920.661 425.163C917.434 428.136 914.213 431.103 911 434.024C870.41 470.925 828.59 500.446 788 507.826C747.41 515.206 705.59 500.446 665 470.925C657.212 465.261 649.379 459.054 641.519 452.825C608.408 426.586 574.802 399.955 542 411.884C521.705 419.264 501.102 441.405 480.5 463.545C459.897 485.685 439.295 507.826 419 515.206C393.958 524.312 368.447 510.946 343.046 497.636C327.276 489.373 311.548 481.132 296 478.305C273.423 474.2 250.466 481.512 227.551 488.809C209.268 494.632 191.013 500.446 173 500.446C140.041 500.446 106.272 480.982 73.0084 461.81C65.3063 457.371 57.6314 452.947 50 448.785C36.1286 441.218 22.1135 434.514 8.05292 427.788C5.37004 426.504 2.6855 425.22 0 423.929V720H1280Z" fill="url(#unitone-abstract-background-mountain-1__2nd)"/>
	<path d="M1280 720V292L1247.94 302.688L1246.79 303.134C1214.4 315.715 1152.77 339.658 1089.41 452.312C1060.33 505.478 1030.87 578.401 1001.38 651.389C992.06 674.46 982.736 697.538 973.421 720H1280ZM601.429 720H0V664.29C14.932 655.804 29.8176 644.902 44.7031 634C76.3203 610.844 107.938 587.688 140 587.688C172.062 587.688 203.68 610.844 235.297 634C266.914 657.156 298.531 680.312 330.594 680.312C356.688 680.312 383.093 664.086 409.55 647.829C446.304 625.244 483.156 602.598 519.406 623.312C546.982 637.866 574.228 675.478 601.429 720Z" fill="url(#unitone-abstract-background-mountain-1__1st)"/>
	<defs>
		<linearGradient id="unitone-abstract-background-mountain-1__background" x1="640" y1="7.63801e-06" x2="850.162" y2="654.416" gradientUnits="userSpaceOnUse">
			<stop stop-color="#6f82ff"/>
			<stop offset="1" stop-color="#ffd9fd"/>
		</linearGradient>
		<linearGradient id="unitone-abstract-background-mountain-1__3rd" x1="659.485" y1="292.716" x2="659.485" y2="720" gradientUnits="userSpaceOnUse">
			<stop stop-color="#5f87ff"/>
			<stop offset="1" stop-color="#4e6ef9"/>
		</linearGradient>
		<linearGradient id="unitone-abstract-background-mountain-1__2nd" x1="659.485" y1="362.739" x2="659.485" y2="720" gradientUnits="userSpaceOnUse">
			<stop stop-color="#415cf3"/>
			<stop offset="1" stop-color="#212b9d"/>
		</linearGradient>
		<linearGradient id="unitone-abstract-background-mountain-1__1st" x1="640" y1="292" x2="640" y2="720" gradientUnits="userSpaceOnUse">
			<stop stop-color="#3649d4"/>
			<stop offset="1" stop-color="#090b3b"/>
		</linearGradient>
	</defs>
</svg>
