<svg viewBox="0 0 1280 720" preserveAspectRatio="xMidYMid slice" xmlns="http://www.w3.org/2000/svg">
	<rect width="100%" height="100%" fill="c2e0ff"/>
	<path d="M1280 456.534V720H180.61C286.324 545.842 476.49 294.475 688.5 305.341C847.017 313.465 985.033 466.509 1081.51 612.784C1140.93 547.331 1208.09 489.875 1280 456.534Z" fill="url(#unitone-abstract-background-mountain-2__1st)"/>
	<path d="M0 316.622C42.7698 309.466 86.9799 285.982 132.729 261.679C192.456 229.952 254.806 196.831 320 196.831C372.31 196.831 438.263 250.531 506.501 306.092C579.639 365.642 655.403 427.331 719.811 427.331C784.129 427.331 836.755 403.445 887.632 380.352C935.237 358.744 981.311 337.831 1034 337.831C1092.79 337.831 1162.13 410.985 1232.62 485.361C1248.39 501.997 1264.22 518.695 1280 534.649V720H0V316.622Z" fill="url(#unitone-abstract-background-mountain-2__2nd)"/>
	<path d="M1280 640.901V720H0V290.708C19.9362 290.744 40.2954 292.765 60.7148 297.46C113.091 309.094 159.3 355.06 204.956 400.476C256.337 451.586 307.017 502 365 502C414.474 502 456.358 478.9 500.929 454.318C551.61 426.367 605.764 396.5 678.5 396.5C750.076 396.5 850.824 470.107 946.82 540.242C1034.17 604.058 1117.58 665 1171.5 665C1221.96 665 1252.81 653.569 1280 640.901Z" fill="url(#unitone-abstract-background-mountain-2__3rd)"/>
	<path d="M1280 319.362V6.10352e-05H0L0 44.8269C36.7318 42.3888 74.5375 35.9369 112.37 29.4804C185.738 16.9594 259.209 4.42098 325.15 21.104C395.946 39.4039 458.481 89.8926 521.156 140.495C570.919 180.672 620.77 220.92 674.915 245.187C755.614 282.311 846.592 281.177 936.768 280.052C978.283 279.535 1019.63 279.019 1059.72 282.24C1113.57 286.069 1166.78 296.83 1220.1 307.616C1240.04 311.649 1259.99 315.684 1280 319.362Z" fill="#0d74cd"/>
	<path d="M1280 223.721V6.10352e-05H424.259C439.63 11.8492 454.889 24.1686 470.156 36.4949C519.919 76.6718 569.77 116.92 623.916 141.187C704.614 178.311 795.592 177.177 885.768 176.052C927.283 175.535 968.629 175.019 1008.72 178.24C1062.57 182.069 1115.78 192.83 1169.1 203.616C1205.93 211.064 1242.81 218.524 1280 223.721Z" fill="#2a87d8"/>
	<path d="M1280 110.668V6.10352e-05H496.644C509.839 7.9093 523.24 15.0577 536.916 21.1865C617.614 58.3109 708.592 57.1766 798.768 56.0524C840.283 55.5348 881.629 55.0193 921.723 58.2403C975.572 62.0687 1028.78 72.8301 1082.1 83.6163C1147.42 96.8267 1212.91 110.074 1280 110.668Z" fill="#0d74cd"/>
	<defs>
		<linearGradient id="unitone-abstract-background-mountain-2__1st" x1="0" y1="305" x2="0" y2="720" gradientUnits="userSpaceOnUse">
			<stop stop-color="#ffe259"/>
			<stop offset="1" stop-color="#ffa751"/>
		</linearGradient>
		<linearGradient id="unitone-abstract-background-mountain-2__2nd" x1="0" y1="197" x2="0" y2="753" gradientUnits="userSpaceOnUse">
			<stop stop-color="#ffa600"/>
			<stop offset="1" stop-color="#ee090d"/>
		</linearGradient>
		<linearGradient id="unitone-abstract-background-mountain-2__3rd" x1="0" y1="435" x2="0" y2="822" gradientUnits="userSpaceOnUse">
			<stop stop-color="#fd1d1d"/>
			<stop offset="1" stop-color="#5c2584"/>
		</linearGradient>
	</defs>
</svg>
