<?xml version="1.0"?>
<svg viewBox="0 0 1280 720" preserveAspectRatio="xMidYMid slice" xmlns="http://www.w3.org/2000/svg">
	<rect width="100%" height="100%" fill="#011128"/>
	<path d="M1184 720H940.737C925.789 704.964 907.06 689.961 888.296 674.93C863.795 655.303 839.232 635.626 822.942 615.762C778.844 561.984 795.381 508.207 839.479 455.809C849.855 443.155 861.758 430.502 873.66 417.848C912.341 376.724 951.023 335.6 937.323 294.477C929.559 271.17 905.23 248.123 880.937 225.11C849.175 195.023 817.476 164.995 822.942 134.523C827.604 104.206 869.056 73.8885 910.508 43.5711C930.366 29.0474 950.224 14.5236 966.038 -0.00012207H1184V134.523V294.477L1184 455.809V615.762V720Z" fill="#022350"/>
	<path d="M102.001 720H629.878C581.353 695.248 539.18 669.343 533.289 636.859C524.283 587.194 600.234 522.951 676.511 458.433C721.191 420.641 765.983 382.754 793.877 347.647C869.393 252.605 821.436 179.955 717.722 119.503C693.232 104.803 665.635 90.6677 638.039 76.5319C590.151 52.0026 542.264 27.4734 510.612 -0.00012207H0V157.544L16.1733 246.728L58.6544 480.979L101.135 715.23L102.001 720Z" fill="#022350"/>
	<path d="M456.519 720C424.368 701.075 396.55 681.364 376.85 660.181C279.003 561.107 370.992 424.581 463.017 288.002C464.454 285.868 465.892 283.735 467.328 281.602C470.688 276.614 474.052 271.629 477.413 266.648C539.941 173.993 601.472 82.8159 613.737 -0.00012207H0V720H456.519Z" fill="#32587F"/>
	<path d="M930.986 -0.00012207H1280V720H1015.95C1032.13 696.825 1041.04 673.651 1033.32 650.477C1025.56 627.17 1001.23 604.123 976.937 581.11C945.175 551.023 913.476 520.995 918.942 490.523C923.604 460.206 965.056 429.889 1006.51 399.571C1038.58 376.111 1070.66 352.651 1085.69 329.191C1120.97 277.599 1069.41 224.669 1017.82 171.719C1017.02 170.892 1016.21 170.065 1015.41 169.238C1013.52 167.304 1011.64 165.372 1009.76 163.442C959.268 111.69 909.94 61.1286 927.211 9.28516C928.242 6.19006 929.506 3.09497 930.986 -0.00012207Z" fill="#32587f"/>
</svg>
